<?xml version="1.0" encoding="UTF-8"?>
<svg id="Layer_1" xmlns="http://www.w3.org/2000/svg" version="1.1" viewBox="0 0 350 310">
  <!-- Generator: Adobe Illustrator 29.0.0, SVG Export Plug-In . SVG Version: 2.1.0 Build 186)  -->
  <defs>
    <style>
      .st0 {
        fill: #fff;
      }

      .st1 {
        fill: #3b8bdb;
      }
    </style>
  </defs>
  <path class="st1" d="M299.9,266.1H52.1c-4.4,0-8-3.6-8-8v-34.4c0-18.3,3.2-36.4,9.4-53.6l19.2-53c8-22.1,29.1-36.9,52.5-36.9h64.2c4.4,0,8,3.6,8,8s-3.6,8-8,8h-64.2c-16.7,0-31.8,10.6-37.4,26.3l-19.2,53c-5.6,15.5-8.4,31.7-8.4,48.2v26.4h231.7v-25.4c0-14.4-2.2-28.7-6.5-42.5-1.3-4.2,1-8.7,5.3-10.1,4.2-1.3,8.7,1,10.1,5.3,4.8,15.3,7.3,31.3,7.3,47.3v33.5c0,4.4-3.6,8-8,8Z"/>
  <g>
    <rect class="st1" x="239.6" y="28.3" width="22.2" height="118.8" transform="translate(135.4 -151.6) rotate(45)"/>
    <circle class="st1" cx="292.7" cy="45.7" r="25.5"/>
    <circle class="st1" cx="208.7" cy="129.7" r="25.5"/>
    <circle class="st0" cx="292.7" cy="45.7" r="12.4"/>
    <circle class="st0" cx="208.7" cy="129.7" r="12.4"/>
  </g>
  <g>
    <path class="st1" d="M289.6,163.8c-2.6,0-5.1-1-7.1-2.9l-15.4-15.4c-1.9-1.9-2.9-4.4-2.9-7.1v-22.5s-44.8-44.8-44.8-44.8c-1.9-1.9-2.9-4.4-2.9-7.1v-19.7l-11.7-11.7c-3.9-3.9-3.9-11.1,0-15,3.9-3.9,10.3-3.9,14.2,0l14.7,15.5c1.9,1.9,2.9,4.4,2.9,7.1v19.7l44.8,44.8c1.9,1.9,2.9,4.4,2.9,7.1v22.5s12.5,12.5,12.5,12.5c3.9,3.9,3.9,10.3,0,14.2-2,2-4.5,2.9-7.1,2.9Z"/>
    <path class="st1" d="M226.3,74h-23.6c-2.7,0-5.2-1.1-7.1-2.9l-7.5-7.5c-3.9-3.9-3.9-10.3,0-14.2,3.9-3.9,10.3-3.9,14.2,0l4.6,4.6h19.5c5.5,0,10,4.5,10,10s-4.5,10-10,10Z"/>
    <path class="st1" d="M305.7,129.7c-2.6,0-5.1-1-7.1-2.9l-4.9-4.9h-19.5c-5.5,0-10-4.5-10-10s4.5-10,10-10h23.6c2.7,0,5.2,1.1,7.1,2.9l7.9,7.9c3.9,3.9,3.9,10.3,0,14.2-2,2-4.5,2.9-7.1,2.9Z"/>
  </g>
  <path class="st1" d="M258.4,180.3H94.5c-2.6,0-5.1-1.3-6.6-3.4-1.5-2.1-1.9-4.9-1-7.3l13.8-38.1c4.6-12.8,16.9-21.3,30.4-21.3h33.3c4.4,0,8,3.6,8,8s-3.6,8-8,8h-33.3c-6.8,0-13,4.3-15.3,10.7l-9.9,27.3h152.5c4.4,0,8,3.6,8,8s-3.6,8-8,8Z"/>
  <path class="st1" d="M59.5,185.2h-16.3c-6.8,0-13.3-3.3-17.2-9-3.9-5.6-4.9-12.8-2.5-19.2,3-8.3,10.9-13.8,19.7-13.8h25.6c2.6,0,5.1,1.3,6.6,3.4,1.5,2.1,1.9,4.9,1,7.3l-9.4,25.9c-1.1,3.2-4.2,5.3-7.6,5.3ZM43.2,159.3c-2.1,0-3.9,1.3-4.6,3.3-.8,2.2.2,3.9.6,4.5.4.6,1.7,2.1,4,2.1h10.6l3.6-9.9h-14.2Z"/>
  <path class="st1" d="M85.8,296.8h-19.2c-12.4,0-22.5-9.3-22.5-20.8v-31.8c0-4.4,3.6-8,8-8s8,3.6,8,8v31.8c0,2.6,3,4.8,6.5,4.8h19.2c3.5,0,6.5-2.2,6.5-4.8v-17.9c0-4.4,3.6-8,8-8s8,3.6,8,8v17.9c0,11.5-10.1,20.8-22.5,20.8Z"/>
  <path class="st1" d="M285.4,296.8h-19.2c-12.4,0-22.5-9.3-22.5-20.8v-17.9c0-4.4,3.6-8,8-8s8,3.6,8,8v17.9c0,2.6,3,4.8,6.5,4.8h19.2c3.5,0,6.5-2.2,6.5-4.8v-31.8c0-4.4,3.6-8,8-8s8,3.6,8,8v31.8c0,11.5-10.1,20.8-22.5,20.8Z"/>
  <path class="st1" d="M251.8,240.5c-12.8,0-23.2-10.4-23.2-23.2s10.4-23.2,23.2-23.2,23.2,10.4,23.2,23.2-10.4,23.2-23.2,23.2ZM251.8,210.1c-4,0-7.2,3.2-7.2,7.2s3.2,7.2,7.2,7.2,7.2-3.2,7.2-7.2-3.2-7.2-7.2-7.2Z"/>
  <path class="st1" d="M100.3,240.5c-12.8,0-23.2-10.4-23.2-23.2s10.4-23.2,23.2-23.2,23.2,10.4,23.2,23.2-10.4,23.2-23.2,23.2ZM100.3,210.1c-4,0-7.2,3.2-7.2,7.2s3.2,7.2,7.2,7.2,7.2-3.2,7.2-7.2-3.2-7.2-7.2-7.2Z"/>
  <path class="st1" d="M175.7,237.8c-9.7,0-19.3-2.5-28.7-7.4-3.9-2.1-5.4-6.9-3.4-10.8,2.1-3.9,6.9-5.4,10.8-3.4,14.2,7.4,28.3,7.4,43.3,0,4-2,8.8-.4,10.8,3.6,2,4,.4,8.8-3.6,10.8-9.8,4.9-19.6,7.3-29.2,7.3Z"/>
</svg>