<?xml version="1.0" encoding="UTF-8"?>
<svg id="Layer_1" xmlns="http://www.w3.org/2000/svg" version="1.1" viewBox="0 0 350 290">
  <!-- Generator: Adobe Illustrator 29.0.0, SVG Export Plug-In . SVG Version: 2.1.0 Build 186)  -->
  <defs>
    <style>
      .st0 {
        fill: #3b8bdb;
      }
    </style>
  </defs>
  <path class="st0" d="M290.4,150.1c-4.2,1.3-6.6,5.8-5.3,10.1,4.3,13.8,6.5,28.1,6.5,42.5v25.4H60v-26.4c0-15.3,2.5-30.5,7.3-45l8.9-24.6c0-.1,0-.2,0-.3l11.3-31.2c5.7-15.7,20.7-26.3,37.4-26.3h33.5c4.4,0,8-3.6,8-8s-3.6-8-8-8h-33.5c-23.4,0-44.6,14.8-52.5,36.9l-9.5,26.2h-20c-8.8,0-16.7,5.6-19.7,13.8-2.3,6.4-1.4,13.6,2.5,19.2,3.9,5.6,10.4,9,17.2,9h5.6c-3.1,12.5-4.7,25.4-4.7,38.4v52.4c0,11.5,10.1,20.8,22.5,20.8h19.2c12.4,0,22.5-9.3,22.5-20.8v-9.9h135.3v9.9c0,11.5,10.1,20.8,22.5,20.8h19.2c12.4,0,22.5-9.3,22.5-20.8v-51.4c0-16.1-2.4-32-7.3-47.3-1.3-4.2-5.8-6.6-10.1-5.3ZM39,145.2c-.4-.6-1.4-2.3-.6-4.5.7-1.9,2.6-3.3,4.6-3.3h14.1l-3.6,9.9h-10.6c-2.3,0-3.6-1.5-4-2.1ZM92.2,254.1c0,2.6-3,4.8-6.5,4.8h-19.2c-3.5,0-6.5-2.2-6.5-4.8v-9.9h32.2v9.9ZM285.2,258.8h-19.2c-3.5,0-6.5-2.2-6.5-4.8v-9.9h32.2v9.9c0,2.6-3,4.8-6.5,4.8Z"/>
  <path class="st0" d="M131,104.3h35.9c4.4,0,8-3.6,8-8s-3.6-8-8-8h-35.9c-13.6,0-25.8,8.6-30.4,21.3l-13.8,38.1c-.9,2.5-.5,5.2,1,7.3s4,3.4,6.6,3.4h153.5c4.4,0,8-3.6,8-8s-3.6-8-8-8H105.8l9.9-27.3c2.3-6.4,8.5-10.7,15.3-10.7Z"/>
  <path class="st0" d="M228.4,195.4c0,12.8,10.4,23.2,23.2,23.2s23.2-10.4,23.2-23.2-10.4-23.2-23.2-23.2-23.2,10.4-23.2,23.2ZM258.9,195.4c0,4-3.2,7.2-7.2,7.2s-7.2-3.2-7.2-7.2,3.2-7.2,7.2-7.2,7.2,3.2,7.2,7.2Z"/>
  <path class="st0" d="M76.9,195.4c0,12.8,10.4,23.2,23.2,23.2s23.2-10.4,23.2-23.2-10.4-23.2-23.2-23.2-23.2,10.4-23.2,23.2ZM107.3,195.4c0,4-3.2,7.2-7.2,7.2s-7.2-3.2-7.2-7.2,3.2-7.2,7.2-7.2,7.2,3.2,7.2,7.2Z"/>
  <path class="st0" d="M196.1,194.2c-15,7.5-29.2,7.5-43.3,0-3.9-2.1-8.8-.5-10.8,3.4-2.1,3.9-.5,8.8,3.4,10.8,9.4,4.9,19,7.4,28.7,7.4s19.4-2.4,29.2-7.3c4-2,5.6-6.8,3.6-10.8-2-4-6.8-5.6-10.8-3.6Z"/>
  <path class="st0" d="M325.7,123.5l-26.2-97.8c-1.1-4.2-5.5-6.8-9.7-5.7-.3,0-34.6,8.5-55,.3-28.8-11.5-61.5-.6-62.9-.1-4,1.4-6.3,5.6-5.2,9.7l26.2,97.8c.6,2.1,2,3.9,3.9,4.9,1.9,1.1,4.2,1.3,6.2.6.3,0,31.5-9.5,51.9-.4,9.5,4.3,20.1,5.7,30,5.7,18.6,0,34.6-5.1,35.6-5.4,4.1-1.3,6.4-5.6,5.3-9.7ZM217.7,32.2l-25.7,30.3-7.8-29c7.7-1.7,20.6-3.6,33.5-1.3ZM196.1,77.7l11.1-13.1,12.9,49.1c-5.3.6-10.1,1.5-13.8,2.3l-10.2-38.2ZM233.2,112.9l-15.8-60.3,13.9-16.4c18.5,6.3,42.5,3.3,54.7,1.1l12,44.6-24.9,39.8c-4-.7-7.9-1.8-11.5-3.4-8.8-4-18.8-5.3-28.2-5.4ZM287.5,122.5l14.9-23.7,5.6,21.1c-5.2,1.1-12.5,2.4-20.5,2.7Z"/>
  <path class="st0" d="M257.7,45.8c-13.1,0-23.8,10.6-23.8,23.8s14.5,32.1,20.8,38.6c1.6,1.7,4.3,1.7,5.9,0,6.4-6.4,20.8-22.5,20.8-38.6s-10.6-23.8-23.8-23.8ZM257.7,79.4c-5.5,0-10-4.5-10-10s4.5-10,10-10,10,4.5,10,10-4.5,10-10,10Z"/>
</svg>