<?xml version="1.0" encoding="UTF-8"?>
<svg id="Layer_1" xmlns="http://www.w3.org/2000/svg" version="1.1" viewBox="0 0 350 250">
  <!-- Generator: Adobe Illustrator 29.0.0, SVG Export Plug-In . SVG Version: 2.1.0 Build 186)  -->
  <defs>
    <style>
      .st0 {
        fill: #3b8bdb;
      }
    </style>
  </defs>
  <path class="st0" d="M298.8,202.6H51.2c-4.4,0-8-3.6-8-8v-34.7c0-18.1,3.1-36,9.3-53l19.3-53.3c8-22,29.1-36.9,52.5-36.9h102.1c23.2,0,44,14.6,51.9,36.4l11.6,31.8c0,.2.1.3.2.5l7.5,20.5c6.3,17.2,9.5,35.2,9.5,53.4v35.2c0,4.4-3.6,8-8,8ZM59.2,186.5h231.6v-27.2c0-16.4-2.9-32.5-8.5-47.9l-7.4-20.3c0-.2-.1-.3-.2-.5l-11.6-32c-5.6-15.4-20.4-25.8-36.8-25.8h-102.1c-16.7,0-31.7,10.6-37.4,26.3l-19.3,53.3c-5.5,15.3-8.3,31.3-8.3,47.5v26.7Z"/>
  <path class="st0" d="M256.5,116.8H93.5c-2.6,0-5.1-1.3-6.6-3.4s-1.9-4.9-1-7.3l13.8-38.1c4.6-12.7,16.8-21.3,30.4-21.3h89.7c13.6,0,25.8,8.6,30.4,21.3l13.8,38.1c.9,2.5.5,5.2-1,7.3s-4,3.4-6.6,3.4ZM105,100.8h140.1l-9.9-27.3c-2.3-6.4-8.5-10.7-15.3-10.7h-89.7c-6.8,0-13,4.3-15.3,10.7l-9.9,27.3Z"/>
  <path class="st0" d="M58.5,121.8h-16.2c-6.8,0-13.3-3.3-17.2-9-3.9-5.6-4.9-12.8-2.5-19.2,3-8.3,10.9-13.8,19.7-13.8h25.6c2.6,0,5.1,1.3,6.6,3.4,1.5,2.1,1.9,4.9,1,7.3l-9.4,25.9c-1.1,3.2-4.2,5.3-7.6,5.3ZM42.3,95.9c-2.1,0-3.9,1.3-4.6,3.2-.8,2.2.2,3.9.6,4.5.4.6,1.7,2.1,4,2.1h10.6l3.6-9.9h-14.2Z"/>
  <path class="st0" d="M307.9,121.8h-16.2c-3.4,0-6.4-2.1-7.6-5.3l-9.4-25.9c-.9-2.5-.5-5.2,1-7.3,1.5-2.1,4-3.4,6.6-3.4h25.6c8.8,0,16.7,5.6,19.7,13.8,2.3,6.4,1.4,13.6-2.5,19.2-3.9,5.6-10.4,9-17.2,9ZM297.3,105.7h10.6c2.3,0,3.6-1.5,4-2.1.4-.6,1.4-2.3.6-4.5-.7-1.9-2.6-3.2-4.6-3.2h-14.2l3.6,9.9Z"/>
  <path class="st0" d="M84.9,233.3h-19.2c-12.4,0-22.5-9.3-22.5-20.8v-31.8c0-4.4,3.6-8,8-8s8,3.6,8,8v31.8c0,2.6,3,4.8,6.5,4.8h19.2c3.5,0,6.5-2.2,6.5-4.8v-17.9c0-4.4,3.6-8,8-8s8,3.6,8,8v17.9c0,11.5-10.1,20.8-22.5,20.8Z"/>
  <path class="st0" d="M284.3,233.3h-19.2c-12.4,0-22.5-9.3-22.5-20.8v-17.9c0-4.4,3.6-8,8-8s8,3.6,8,8v17.9c0,2.6,3,4.8,6.5,4.8h19.2c3.5,0,6.5-2.2,6.5-4.8v-31.8c0-4.4,3.6-8,8-8s8,3.6,8,8v31.8c0,11.5-10.1,20.8-22.5,20.8Z"/>
  <path class="st0" d="M250.8,177c-12.8,0-23.2-10.4-23.2-23.2s10.4-23.2,23.2-23.2,23.2,10.4,23.2,23.2-10.4,23.2-23.2,23.2ZM250.8,146.6c-4,0-7.2,3.2-7.2,7.2s3.2,7.2,7.2,7.2,7.2-3.2,7.2-7.2-3.2-7.2-7.2-7.2Z"/>
  <path class="st0" d="M99.3,177c-12.8,0-23.2-10.4-23.2-23.2s10.4-23.2,23.2-23.2,23.2,10.4,23.2,23.2-10.4,23.2-23.2,23.2ZM99.3,146.6c-4,0-7.2,3.2-7.2,7.2s3.2,7.2,7.2,7.2,7.2-3.2,7.2-7.2-3.2-7.2-7.2-7.2Z"/>
  <path class="st0" d="M174.8,174.3c-9.7,0-19.3-2.5-28.7-7.4-3.9-2.1-5.4-6.9-3.4-10.8,2.1-3.9,6.9-5.4,10.8-3.4,14.2,7.4,28.3,7.4,43.3,0,4-2,8.8-.4,10.8,3.6,2,4,.4,8.8-3.6,10.8-9.8,4.9-19.5,7.3-29.2,7.3Z"/>
</svg>